<?xml version="1.0" standalone="no"?>
<!DOCTYPE svg PUBLIC "-//W3C//DTD SVG 20010904//EN"
 "http://www.w3.org/TR/2001/REC-SVG-20010904/DTD/svg10.dtd">
<svg version="1.0" xmlns="http://www.w3.org/2000/svg"
 width="442.000000pt" height="442.000000pt" viewBox="0 0 442.000000 442.000000"
 preserveAspectRatio="xMidYMid meet">
<metadata>
Created by potrace 1.14, written by Peter Selinger 2001-2017
</metadata>
<g transform="translate(0.000000,442.000000) scale(0.100000,-0.100000)"
fill="#000000" stroke="none">
<path d="M2015 4229 c-158 -15 -360 -68 -520 -137 -486 -210 -877 -655 -1011
-1152 -28 -101 -64 -288 -64 -330 0 -15 -6 -32 -12 -38 -18 -18 -37 -116 -37
-198 -1 -79 -6 -87 -66 -103 -22 -6 -77 -33 -122 -61 -104 -64 -112 -84 -57
-141 55 -57 148 -116 204 -129 l47 -11 6 -102 c10 -195 51 -242 156 -182 23
14 44 25 46 25 2 0 30 -47 63 -103 61 -105 140 -215 196 -275 33 -36 33 -35
-26 -67 -65 -36 -74 -90 -27 -179 68 -130 167 -257 339 -439 36 -38 66 -73 68
-78 2 -4 -8 -24 -22 -42 -14 -19 -26 -42 -26 -52 0 -22 118 -139 185 -183 l50
-33 33 35 c18 20 41 36 52 36 10 0 22 5 25 11 5 7 16 2 31 -12 18 -16 21 -25
12 -30 -23 -14 55 -79 96 -79 15 0 95 95 118 139 7 14 22 42 34 61 11 19 51
93 87 165 l67 130 262 -1 c209 -2 264 -5 270 -15 3 -8 21 -43 39 -79 113 -227
187 -354 228 -387 31 -27 75 -15 142 37 35 27 66 50 69 50 3 0 15 -16 28 -35
14 -23 30 -35 45 -35 20 0 158 113 215 176 29 33 28 75 -3 104 -14 13 -25 28
-25 33 0 4 47 59 105 120 199 212 344 433 331 502 -7 31 -52 85 -72 85 -6 0
-17 7 -24 15 -10 12 -3 27 43 84 31 37 81 106 111 153 56 87 156 284 156 310
0 8 4 18 9 24 16 18 74 220 90 314 20 126 33 312 26 385 l-7 74 75 -6 c141
-11 192 14 181 90 -4 23 -19 70 -35 103 -34 73 -36 88 -9 107 33 23 76 90 100
155 21 58 22 64 7 80 -29 32 -118 53 -190 46 -101 -10 -157 31 -157 116 0 53
27 104 84 160 25 24 46 51 46 60 0 25 -149 164 -211 198 -31 16 -76 33 -100
37 -81 12 -79 10 -79 79 0 110 -36 208 -116 319 -51 70 -71 66 -161 -30 -60
-65 -133 -168 -146 -206 -1 -5 -45 19 -97 53 -134 88 -280 158 -425 205 -39
12 -60 17 -200 51 -133 31 -350 41 -530 23z"/>
</g>
</svg>
